<svg width="24" height="24" viewBox="0 0 24 24" fill="none" xmlns="http://www.w3.org/2000/svg">
<rect width="24" height="24" fill="white"/>
<path fill-rule="evenodd" clip-rule="evenodd" d="M6 2C3.79086 2 2 3.79086 2 6V18C2 20.2091 3.79086 22 6 22H18C20.2091 22 22 20.2091 22 18V6C22 3.79086 20.2091 2 18 2H6ZM8.875 8.45312V10.4355H10.3594V16.9883C10.3594 17.6523 10.5156 18.1439 10.8281 18.4629C11.3099 18.9642 12.2083 19.1921 13.5234 19.1465L14.8418 19.0977V17.0176C14.7507 17.0241 14.6562 17.0306 14.5586 17.0371H14.2949C13.7285 17.0371 13.39 16.985 13.2793 16.8809C13.1686 16.7702 13.1133 16.4967 13.1133 16.0605V10.4355H14.8418V8.45312H13.1133V5.48438H10.3594V8.45312H8.875Z" fill="black"/>
</svg>
